<!DOCTYPE svg PUBLIC "-//W3C//DTD SVG 1.1//EN" "http://www.w3.org/Graphics/SVG/1.1/DTD/svg11.dtd">
<!-- Uploaded to: SVG Repo, www.svgrepo.com, Transformed by: SVG Repo Mixer Tools -->
<svg fill="#000000" width="800px" height="800px" viewBox="0 0 24 24" id="download-alt-4" data-name="Flat Color" xmlns="http://www.w3.org/2000/svg" class="icon flat-color">
<g id="SVGRepo_bgCarrier" stroke-width="0"/>
<g id="SVGRepo_tracerCarrier" stroke-linecap="round" stroke-linejoin="round"/>
<g id="SVGRepo_iconCarrier">
<path id="secondary" d="M16.71,11.29a1,1,0,0,0-1.42,0L13,13.59V3a1,1,0,0,0-2,0V13.59l-2.29-2.3a1,1,0,1,0-1.42,1.42l4,4a1,1,0,0,0,1.42,0l4-4A1,1,0,0,0,16.71,11.29Z" style="fill: #2ca9bc;"/>
<path id="primary" d="M18.86,22H5.14A2.08,2.08,0,0,1,3,20V16a1,1,0,0,1,2,0v4s.06,0,.14,0H18.86A.22.22,0,0,0,19,20V16a1,1,0,0,1,2,0v4A2.08,2.08,0,0,1,18.86,22Z" style="fill: #000000;"/>
</g>
</svg>